<svg width="600" height="280" xmlns="http://www.w3.org/2000/svg">
  <defs>
    <linearGradient id="heroBg" x1="0%" y1="0%" x2="100%" y2="100%">
      <stop offset="0%" stop-color="#fce4ec"/>
      <stop offset="50%" stop-color="#e8f5e9"/>
      <stop offset="100%" stop-color="#ede7f6"/>
    </linearGradient>
  </defs>
  <rect width="600" height="280" fill="url(#heroBg)" rx="16"/>
  <!-- decorative record -->
  <circle cx="480" cy="140" r="100" fill="#c4b5fd" opacity="0.5"/>
  <circle cx="480" cy="140" r="70" fill="#1a1a1a" opacity="0.7"/>
  <circle cx="480" cy="140" r="45" fill="#f9a8d4" opacity="0.7"/>
  <circle cx="480" cy="140" r="15" fill="#1a1a1a"/>
  <!-- waveform bars -->
  <rect x="60" y="100" width="10" height="80" rx="5" fill="#f9a8d4" opacity="0.8"/>
  <rect x="80" y="80" width="10" height="120" rx="5" fill="#d7bde2" opacity="0.8"/>
  <rect x="100" y="90" width="10" height="100" rx="5" fill="#a8e6cf" opacity="0.8"/>
  <rect x="120" y="110" width="10" height="60" rx="5" fill="#f9a8d4" opacity="0.8"/>
  <rect x="140" y="70" width="10" height="140" rx="5" fill="#d7bde2" opacity="0.8"/>
  <rect x="160" y="95" width="10" height="90" rx="5" fill="#a8e6cf" opacity="0.8"/>
  <rect x="180" y="115" width="10" height="50" rx="5" fill="#f9a8d4" opacity="0.8"/>
  <!-- main text -->
  <text x="300" y="120" text-anchor="middle" font-family="Georgia, serif" font-size="32" fill="#4a4a4a" font-weight="bold">EchoEra</text>
  <text x="300" y="158" text-anchor="middle" font-family="Arial, sans-serif" font-size="14" fill="#777">Your music, your vibe &#9835;</text>
  <!-- stars -->
  <text x="30" y="40" font-size="20" fill="#f9a8d4">&#10022;</text>
  <text x="560" y="50" font-size="14" fill="#d7bde2">&#10022;</text>
  <text x="40" y="260" font-size="12" fill="#a8e6cf">&#10022;</text>
  <text x="545" y="265" font-size="16" fill="#f9a8d4">&#10022;</text>
</svg>
